<svg version="1.1" xmlns="http://www.w3.org/2000/svg" xmlns:xlink="http://www.w3.org/1999/xlink" x="0px" y="0px" width="256px" height="256px" viewBox="0 0 256 256" style="enable-background:new 0 0 256 256;" xml:space="preserve">
  <style type="text/css">
    path {
      stroke: #6fc81e;
      fill: #6fc81e;              
    }              
  </style>
<path d="M169.7,62.8H87.1c-5.1,0-9.2-4.1-9.2-9.2V30c0-5.1,4.1-9.2,9.2-9.2h82.6c5.1,0,9.2,4.1,9.2,9.2v23.6 C178.9,58.7,174.8,62.8,169.7,62.8z M87.1,28.8c-0.7,0-1.2,0.5-1.2,1.2v23.6c0,0.7,0.5,1.2,1.2,1.2h82.6c0.7,0,1.2-0.5,1.2-1.2V30 c0-0.7-0.5-1.2-1.2-1.2H87.1z M169.7,112.8H87.1c-5.1,0-9.2-4.1-9.2-9.2V80c0-5.1,4.1-9.2,9.2-9.2h82.6c5.1,0,9.2,4.1,9.2,9.2v23.6 C178.9,108.7,174.8,112.8,169.7,112.8z M87.1,78.8c-0.7,0-1.2,0.5-1.2,1.2v23.6c0,0.7,0.5,1.2,1.2,1.2h82.6c0.7,0,1.2-0.5,1.2-1.2 V80c0-0.7-0.5-1.2-1.2-1.2H87.1z M154.7,152.8h-52.6c-5.1,0-9.2-4.1-9.2-9.2V129c0-5.1,4.1-9.2,9.2-9.2h52.6c5.1,0,9.2,4.1,9.2,9.2 v14.6C163.9,148.7,159.8,152.8,154.7,152.8z M102.1,127.8c-0.7,0-1.2,0.5-1.2,1.2v14.6c0,0.7,0.5,1.2,1.2,1.2h52.6 c0.7,0,1.2-0.5,1.2-1.2V129c0-0.7-0.5-1.2-1.2-1.2H102.1z M128.4,212.8c-9.3,0-16.9-7.6-16.9-16.9c0-9.3,7.6-16.9,16.9-16.9 c9.3,0,16.9,7.6,16.9,16.9C145.3,205.2,137.8,212.8,128.4,212.8z M128.4,187c-4.9,0-8.9,4-8.9,8.9s4,8.9,8.9,8.9 c4.9,0,8.9-4,8.9-8.9S133.4,187,128.4,187z M183.3,256.3H73.6c-8.5,0-15.4-6.9-15.4-15.4V15.4C58.2,6.9,65.1,0,73.6,0h109.8 c8.5,0,15.4,6.9,15.4,15.4v225.5C198.7,249.4,191.8,256.3,183.3,256.3z M73.6,8c-4.1,0-7.4,3.3-7.4,7.4v225.5c0,4.1,3.3,7.4,7.4,7.4 h109.8c4.1,0,7.4-3.3,7.4-7.4V15.4c0-4.1-3.3-7.4-7.4-7.4H73.6z"/> </svg>