<svg version="1.1" xmlns="http://www.w3.org/2000/svg" xmlns:xlink="http://www.w3.org/1999/xlink" x="0px" y="0px" width="256px" height="256px" viewBox="0 0 256 256" style="enable-background:new 0 0 256 256;" xml:space="preserve">
  <style type="text/css">
    path {
      stroke: #6fc81e;
      fill: #6fc81e;              
    }              
  </style>
<path d="M244,86c2.2,0,4-1.8,4-4s-1.8-4-4-4h-19.6V56H244c2.2,0,4-1.8,4-4s-1.8-4-4-4h-20c-0.1,0-0.3,0-0.4,0 c-2.1-8.4-8.6-15.1-16.8-17.6V12c0-2.2-1.8-4-4-4s-4,1.8-4,4v17.4h-22V12c0-2.2-1.8-4-4-4s-4,1.8-4,4v17.4h-22V12c0-2.2-1.8-4-4-4 s-4,1.8-4,4v17.4h-22V12c0-2.2-1.8-4-4-4s-4,1.8-4,4v17.4h-22V12c0-2.2-1.8-4-4-4s-4,1.8-4,4v17.4h-22V12c0-2.2-1.8-4-4-4 s-4,1.8-4,4v18.5C40.6,33,34.2,39.6,32,48h-0.1H12c-2.2,0-4,1.8-4,4s1.8,4,4,4h19.3v22H12c-2.2,0-4,1.8-4,4s1.8,4,4,4h19.3v22H12 c-2.2,0-4,1.8-4,4s1.8,4,4,4h19.3v22H12c-2.2,0-4,1.8-4,4s1.8,4,4,4h19.3v22H12c-2.2,0-4,1.8-4,4s1.8,4,4,4h19.3v22H12 c-2.2,0-4,1.8-4,4s1.8,4,4,4h20h0.1c2.1,8.4,8.6,15.1,16.9,17.6c0,0.2-0.1,0.3-0.1,0.5v20c0,2.2,1.8,4,4,4s4-1.8,4-4v-19.4h22V244 c0,2.2,1.8,4,4,4s4-1.8,4-4v-19.4h22V244c0,2.2,1.8,4,4,4s4-1.8,4-4v-19.4h22V244c0,2.2,1.8,4,4,4s4-1.8,4-4v-19.4h22V244 c0,2.2,1.8,4,4,4s4-1.8,4-4v-19.4h22V244c0,2.2,1.8,4,4,4s4-1.8,4-4v-20c0-0.2,0-0.3-0.1-0.5c8.3-2.5,14.8-9.2,16.9-17.6 c0.1,0,0.2,0,0.4,0h20c2.2,0,4-1.8,4-4s-1.8-4-4-4h-19.6v-22H244c2.2,0,4-1.8,4-4s-1.8-4-4-4h-19.6v-22H244c2.2,0,4-1.8,4-4 s-1.8-4-4-4h-19.6v-22H244c2.2,0,4-1.8,4-4s-1.8-4-4-4h-19.6V86H244z M216.4,199.9c0,9.2-7.5,16.7-16.7,16.7H56 c-9.2,0-16.7-7.5-16.7-16.7V54.1c0-9.2,7.5-16.7,16.7-16.7h143.7c9.2,0,16.7,7.5,16.7,16.7V199.9z M188.3,200.3H66.7 c-6.6,0-12-5.4-12-12v-123c0-6.6,5.4-12,12-12h121.7c6.6,0,12,5.4,12,12v123C200.3,195,195,200.3,188.3,200.3z M66.7,61.3 c-2.2,0-4,1.8-4,4v123c0,2.2,1.8,4,4,4h121.7c2.2,0,4-1.8,4-4v-123c0-2.2-1.8-4-4-4H66.7z M85.5,75.5c4.4,0,8,3.6,8,8 c0,4.4-3.6,8-8,8c-4.4,0-8-3.6-8-8C77.5,79.1,81.1,75.5,85.5,75.5z M168.7,161c4.4,0,8,3.6,8,8s-3.6,8-8,8c-4.4,0-8-3.6-8-8 S164.2,161,168.7,161z"/> </svg>
