<svg version="1.1" xmlns="http://www.w3.org/2000/svg" xmlns:xlink="http://www.w3.org/1999/xlink" x="0px" y="0px" width="256px" height="256px" viewBox="0 0 256 256" style="enable-background:new 0 0 256 256;" xml:space="preserve">
  <style type="text/css">
    path {
      stroke: #6fc81e;
      fill: #6fc81e;              
    }              
  </style>
<path d="M128.7,232.8c-57.5,0-104.3-46.8-104.3-104.3C24.4,71,71.2,24.2,128.7,24.2C186.2,24.2,233,71,233,128.5 C233,186,186.2,232.8,128.7,232.8z M128.7,32.2c-53.1,0-96.3,43.2-96.3,96.3c0,53.1,43.2,96.3,96.3,96.3c53.1,0,96.3-43.2,96.3-96.3 C225,75.4,181.8,32.2,128.7,32.2z M128.7,214.7c-8.6,0-17.1-1.3-25.3-3.8c-1.2-0.4-2.1-1.2-2.5-2.3c-5.3-13.3-5.7-29-1.3-44.3 c-5.9,11.2-9.1,23.4-8.7,34.8c0,1.5-0.7,2.8-2,3.6c-1.3,0.7-2.8,0.7-4.1,0c-12.7-7.5-23.3-18.3-30.8-31.1 c-4.3-7.5-7.5-15.5-9.4-23.8c-0.3-1.2,0-2.4,0.8-3.4c8.9-11.3,22.3-19.5,37.7-23.3c-12.7,0.4-24.8,3.9-34.5,9.9 c-1.2,0.8-2.8,0.8-4.1,0.1c-1.3-0.7-2.1-2.1-2-3.5c0.1-14.8,4.1-29.3,11.6-42.2c4.3-7.5,9.7-14.2,15.9-20c0.9-0.8,2.1-1.2,3.3-1 c14.2,2.1,28,9.5,39,21c-6.7-10.7-15.7-19.5-25.8-24.9c-1.3-0.7-2.1-2-2.1-3.5c0-1.5,0.8-2.8,2-3.5c12.8-7.3,27.5-11.1,42.3-11.1 c8.6,0,17.1,1.3,25.3,3.8c1.2,0.4,2.1,1.2,2.5,2.3c5.3,13.3,5.7,29,1.3,44.3c5.9-11.2,9.1-23.4,8.7-34.8c0-1.5,0.7-2.8,2-3.6 s2.8-0.7,4.1,0c12.7,7.5,23.3,18.3,30.8,31.1c4.3,7.5,7.5,15.5,9.4,23.8c0.3,1.2,0,2.4-0.8,3.4c-8.9,11.3-22.3,19.5-37.7,23.3 c12.7-0.4,24.8-3.9,34.5-9.9c1.2-0.8,2.8-0.8,4.1-0.1c1.3,0.7,2.1,2.1,2,3.5c-0.1,14.7-4.1,29.3-11.6,42.2 c-4.3,7.5-9.7,14.2-15.9,20c-0.9,0.8-2.1,1.2-3.3,1c-14.2-2.1-28-9.5-39-21c6.7,10.8,15.7,19.5,25.8,24.9c1.3,0.7,2.1,2,2.1,3.5 c0,1.5-0.8,2.8-2,3.5C158.2,210.9,143.6,214.7,128.7,214.7z M107.6,203.8c6.8,1.9,13.9,2.9,21.1,2.9c11.1,0,22.1-2.4,32.1-6.9 c-11.8-8.1-21.6-20-28-34.3c-1.3,0.1-2.7,0.2-4.1,0.2c-7.1,0-13.7-2-19.4-5.4C103.6,175.1,103,190.7,107.6,203.8z M52.9,147.9 c1.8,6.9,4.5,13.5,8.1,19.7c5.6,9.6,13.1,17.9,22,24.4c1.1-14.2,6.5-28.7,15.7-41.5c-4.5-6.2-7.2-13.8-7.2-22c0-0.3,0-0.6,0-0.9 C75.8,130,62,137.3,52.9,147.9z M146.6,161.2c9.9,12.4,23.1,20.7,36.8,23.3c5.1-5,9.4-10.6,13-16.8c5.6-9.6,9-20.3,10.1-31.3 c-12.9,6.2-28.1,8.7-43.7,7.1C159.5,151,153.8,157.2,146.6,161.2z M128.7,99.2c-16.1,0-29.2,13.1-29.2,29.2s13.1,29.2,29.2,29.2 s29.2-13.1,29.2-29.2S144.9,99.2,128.7,99.2z M158.7,106.5c4.5,6.2,7.2,13.8,7.2,22c0,0.3,0,0.6,0,0.9c15.7-2.4,29.5-9.7,38.5-20.3 c-1.8-6.9-4.5-13.5-8.1-19.7c-5.6-9.6-13.1-18-22-24.4C173.3,79.2,167.9,93.7,158.7,106.5z M74,72.6c-5.1,5-9.4,10.6-13,16.8 c-5.6,9.6-9,20.3-10.1,31.3c12.9-6.2,28.1-8.7,43.7-7.1c3.3-7.5,9.1-13.8,16.2-17.7C100.9,83.4,87.7,75.1,74,72.6z M128.7,91.2 c7.1,0,13.7,2,19.4,5.4c5.8-14.8,6.4-30.4,1.7-43.5c-6.8-1.9-13.9-2.9-21.1-2.9c-11.1,0-22.1,2.4-32.1,6.9 c11.8,8.1,21.6,20,28.1,34.3C126,91.3,127.4,91.2,128.7,91.2z M221.6,249.5H35.8c-14.8,0-26.8-12-26.8-26.8V34.3 c0-14.8,12-26.8,26.8-26.8h185.8c14.8,0,26.8,12,26.8,26.8v188.5C248.4,237.5,236.4,249.5,221.6,249.5z M35.8,15.5 c-10.3,0-18.8,8.4-18.8,18.8v188.5c0,10.3,8.4,18.8,18.8,18.8h185.8c10.3,0,18.8-8.4,18.8-18.8V34.3c0-10.3-8.4-18.8-18.8-18.8H35.8 z"/> </svg>