<svg version="1.1" xmlns="http://www.w3.org/2000/svg" xmlns:xlink="http://www.w3.org/1999/xlink" x="0px" y="0px" width="256px" height="256px" viewBox="0 0 256 256" style="enable-background:new 0 0 256 256;" xml:space="preserve">
  <style type="text/css">
    path {
      stroke: #6fc81e;
      fill: #6fc81e;              
    }              
  </style>
<path d="M242.2,40.3H14c-3.8,0-7.3,1.5-9.9,4.1s-4,6.1-3.9,9.8v140.1c0,7.6,6.2,13.8,13.8,13.8h228.2c7.6,0,13.8-6.2,13.8-13.8V54.1 C256,46.5,249.8,40.3,242.2,40.3z M248,194.3c0,3.2-2.6,5.8-5.8,5.8H14c-3.2,0-5.8-2.6-5.8-5.8V54.1c0-1.6,0.5-3,1.6-4.1 s2.6-1.7,4.2-1.7h228.2c3.2,0,5.8,2.6,5.8,5.8V194.3z M127.3,63.1H40.5c-9.5,0-17.2,7.7-17.2,17.1V167c0,9.5,7.7,17.2,17.2,17.2 h86.8c9.5,0,17.2-7.7,17.2-17.2V80.3C144.4,70.8,136.7,63.1,127.3,63.1z M136.4,80.3V167c0,1-0.2,2-0.5,3l-17.8-17.8 c6.5-7.7,10.4-17.7,10.4-28.6c0-10.7-3.8-20.4-10-28.1l17.6-17.6C136.3,78.6,136.4,79.4,136.4,80.3z M32,170.6 c-0.5-1.1-0.7-2.3-0.7-3.6V80.3c0-1.1,0.2-2.1,0.5-3.1L49.7,95c-6.5,7.8-10.4,17.7-10.4,28.6c0,11.1,4.1,21.2,10.8,29L32,170.6z M47.3,123.6c0-8.7,3-16.7,8.1-22.9l9.2,9.2c-2.8,3.9-4.4,8.6-4.4,13.7c0,5.3,1.7,10.2,4.7,14.1l-9.2,9.2 C50.4,140.6,47.3,132.5,47.3,123.6z M83.9,139.3c-8.7,0-15.7-7-15.7-15.7s7-15.7,15.7-15.7s15.7,7,15.7,15.7S92.5,139.3,83.9,139.3z M98,104.6c-4-2.9-8.8-4.7-14.1-4.7c-5.1,0-9.8,1.6-13.6,4.3L61,95.1c6.3-5,14.2-8,22.8-8c8.9,0,17,3.2,23.3,8.4L98,104.6z M70.6,143.3c3.8,2.5,8.3,4,13.2,4c5.1,0,9.8-1.6,13.7-4.4l9.2,9.2c-6.3,5-14.2,8.1-22.9,8.1c-8.4,0-16.2-2.9-22.4-7.7L70.6,143.3z M103.2,137.3c2.7-3.9,4.4-8.6,4.4-13.7c0-4.9-1.5-9.4-4-13.2l9.2-9.2c4.8,6.2,7.7,14,7.7,22.4c0,8.7-3,16.6-8.1,22.9L103.2,137.3z M127.3,71.1c1.3,0,2.5,0.3,3.6,0.7l-18,18c-7.9-6.7-18-10.8-29-10.8C73,79,63.1,82.9,55.3,89.4L37.5,71.6c0.9-0.3,1.9-0.5,2.9-0.5 H127.3z M40.5,176.2c-0.8,0-1.6-0.1-2.4-0.3l17.6-17.6c7.7,6.3,17.5,10,28.1,10c10.9,0,20.8-3.9,28.6-10.4l17.8,17.8 c-0.9,0.3-1.9,0.5-3,0.5H40.5z M219.5,143.2h-44.3c-7.6,0-13.8,6.2-13.8,13.8v14.8c0,7.6,6.2,13.8,13.8,13.8h44.3 c7.6,0,13.8-6.2,13.8-13.8V157C233.3,149.4,227.1,143.2,219.5,143.2z M225.3,171.8c0,3.2-2.6,5.8-5.8,5.8h-44.3 c-3.2,0-5.8-2.6-5.8-5.8V157c0-3.2,2.6-5.8,5.8-5.8h44.3c3.2,0,5.8,2.6,5.8,5.8V171.8z M222.1,63.4h-49.5c-6.2,0-11.2,5-11.2,11.2 v22.3c0,13.1,10.6,23.7,23.7,23.7h24.6c13.1,0,23.7-10.6,23.7-23.7V74.6C233.3,68.4,228.3,63.4,222.1,63.4z M225.3,96.9 c0,8.7-7,15.7-15.7,15.7H185c-8.7,0-15.7-7-15.7-15.7V74.6c0-1.8,1.4-3.2,3.2-3.2H222c1.8,0,3.2,1.4,3.2,3.2v22.3H225.3z"/> </svg>