<svg version="1.1" xmlns="http://www.w3.org/2000/svg" xmlns:xlink="http://www.w3.org/1999/xlink" x="0px" y="0px" width="256px" height="256px" viewBox="0 0 256 256" style="enable-background:new 0 0 256 256;" xml:space="preserve">
  <style type="text/css">
    path {
      stroke: #6fc81e;
      fill: #6fc81e;              
    }              
  </style>
<path d="M206,0.3H53.6C36.8,0.3,23.1,14,23.1,30.8v194.7c0,16.8,13.7,30.5,30.5,30.5H206c16.8,0,30.5-13.7,30.5-30.5V30.8 C236.5,14,222.9,0.3,206,0.3z M228.5,225.5c0,12.4-10.1,22.5-22.5,22.5H53.6c-12.4,0-22.5-10.1-22.5-22.5V30.8 c0-12.4,10.1-22.5,22.5-22.5H206c12.4,0,22.5,10.1,22.5,22.5V225.5z M47.4,30.9c0-4.4,3.6-8,8-8s8,3.6,8,8s-3.6,8-8,8 S47.4,35.3,47.4,30.9z M63.4,223.9c0,4.4-3.6,8-8,8s-8-3.6-8-8s3.6-8,8-8S63.4,219.5,63.4,223.9z M213.4,30.9c0,4.4-3.6,8-8,8 s-8-3.6-8-8s3.6-8,8-8S213.4,26.5,213.4,30.9z M213.4,223.9c0,4.4-3.6,8-8,8s-8-3.6-8-8s3.6-8,8-8S213.4,219.5,213.4,223.9z M205.6,128.2c0,13.3-3.5,26.4-10.1,37.9c-1,1.6-2,3.3-3.1,4.9c-1.2,1.8-3.7,2.3-5.6,1c-1.8-1.2-2.3-3.7-1-5.6 c1-1.4,1.9-2.9,2.7-4.4c5.9-10.3,9.1-22,9.1-33.9c0-37.4-30.4-67.8-67.8-67.8S62,90.8,62,128.2S92.4,196,129.8,196 c3.3,0,6.6-0.2,9.9-0.7c1.5-0.2,3-0.5,4.4-0.8c2.2-0.5,4.3,0.9,4.8,3.1c0.5,2.2-0.9,4.3-3.1,4.8c-1.6,0.4-3.3,0.7-4.9,0.9 c-3.6,0.5-7.4,0.8-11.1,0.8C88,204,54,170,54,128.2s34-75.8,75.8-75.8S205.6,86.4,205.6,128.2z M129.8,106 c-12.3,0-22.2,10-22.2,22.2s10,22.2,22.2,22.2s22.2-10,22.2-22.2S142.1,106,129.8,106z M129.8,142.4c-7.8,0-14.2-6.4-14.2-14.2 S122,114,129.8,114s14.2,6.4,14.2,14.2S137.7,142.4,129.8,142.4z M190.8,191.4c-3.3-4.8-27-30.6-38.2-38.3c-1.8-1.2-4.2-1.2-6,0 c-1.8,1.3-2.6,3.5-2.1,5.6c3.2,12.7,18.2,44.6,21.5,49.5c2.2,3.3,5.6,5.5,9.6,6.3c0.9,0.2,1.9,0.3,2.8,0.3c3,0,5.9-0.9,8.4-2.6 C193.6,207.6,195.4,198.2,190.8,191.4L190.8,191.4z M182.3,205.6c-1.5,1-3.4,1.4-5.2,1.1c-1.8-0.3-3.4-1.4-4.5-2.9 c-2.2-3.3-12.1-24.1-17.5-38.2c11.2,10,26.6,26.9,29,30.4C186.3,199.1,185.5,203.4,182.3,205.6z M104.3,30.9c0-2.2,1.8-4,4-4h41 c2.2,0,4,1.8,4,4s-1.8,4-4,4h-41C106.1,34.9,104.3,33.1,104.3,30.9z"/> </svg>