<svg width="256" height="248" viewBox="0 0 256 248" xmlns="http://www.w3.org/2000/svg">
  <style type="text/css">
    path {
      stroke: #6fc81e;
      fill: #6fc81e;              
    }              
  </style>
<path d="M247.624 176.758L247.918 175.582C252.326 162.944 254.384 149.424 254.384 135.903C254.384 66.5395 197.658 10.4017 128 10.4017C58.3422 10.4017 1.61663 66.8334 1.61663 135.903C1.61663 149.424 3.67403 162.944 8.08276 175.876L8.37669 176.758C1.02881 181.46 -1.91035 190.866 1.91054 199.095L13.9611 224.96C18.0759 233.777 28.6568 237.598 37.4743 233.483L55.1092 224.96L28.069 167.058L18.9576 171.467C15.1367 160.005 13.3732 148.248 13.3732 136.197C13.3732 73.5935 64.8084 22.4523 128 22.4523C191.192 22.4523 242.627 73.5935 242.627 136.197C242.627 148.248 240.57 160.298 237.043 171.467L227.931 167.058L200.891 224.96L218.526 233.483C227.343 237.598 237.924 233.777 242.039 224.96L254.09 199.095C257.911 190.866 254.971 181.46 247.624 176.758Z"/> <path d="M223.523 142.957L213.823 138.549C210.59 137.079 207.357 136.197 203.83 136.197C195.013 136.197 186.489 141.194 182.374 149.717L158.273 201.153C152.689 212.909 157.979 227.017 169.736 232.308L179.435 236.716C180.317 237.01 181.199 237.304 181.787 237.304C184.138 237.304 186.195 236.128 187.077 233.777L225.874 150.305C227.637 147.954 226.462 144.427 223.523 142.957ZM179.435 223.784L175.027 221.727C172.087 220.257 170.03 217.906 168.854 214.967C167.679 212.027 167.973 208.794 169.148 205.855L193.249 154.42C195.307 150.305 199.422 147.66 203.83 147.66C205.594 147.66 207.063 147.954 208.827 148.836L213.236 150.893L179.435 223.784Z"/> <path d="M73.3321 150.011C69.2173 141.488 60.9877 136.491 51.8763 136.491C48.6433 136.491 45.1163 137.079 41.8832 138.843L32.4779 142.958C29.5388 144.427 28.3631 147.954 29.5388 150.893L68.3356 234.071C69.2173 236.129 71.5686 237.598 73.626 237.598C74.5078 237.598 75.3895 237.304 75.9774 237.01L85.6766 232.602C97.4332 227.017 102.43 213.203 97.1393 201.447L73.3321 150.011ZM87.1461 215.261C85.9705 218.2 83.9131 220.551 80.9739 222.021L76.5652 224.078L42.765 151.187L47.1737 149.13C48.6433 148.542 50.4067 147.954 52.1702 147.954C56.8729 147.954 60.9877 150.599 62.7512 154.714L86.8522 206.149C88.0279 209.088 88.0279 212.321 87.1461 215.261Z"/> </svg>