<svg width="256" height="248" viewBox="0 0 256 248" xmlns="http://www.w3.org/2000/svg">
  <style type="text/css">
    path {
      stroke: #6fc81e;
      fill: #6fc81e;              
    }              
  </style>
<path d="M231.605 88.5832H136.671C139.316 78.0022 149.015 70.0665 160.478 70.0665C182.227 70.0665 199.862 52.4316 199.862 30.6819V22.7462C199.862 18.6314 196.629 15.3983 192.514 15.3983C188.4 15.3983 185.167 18.6314 185.167 22.7462V30.6819C185.167 44.202 173.998 55.3708 160.478 55.3708C140.785 55.3708 124.62 69.7726 121.681 88.5832H24.395C11.1688 88.5832 0 99.458 0 112.978V208.207C0 221.433 10.8749 232.602 24.395 232.602H231.605C244.831 232.602 256 221.727 256 208.207V112.978C255.706 99.458 244.831 88.5832 231.605 88.5832ZM241.01 208.207C241.01 213.497 236.602 217.906 231.311 217.906H24.101C18.8106 217.906 14.4018 213.497 14.4018 208.207V112.978C14.4018 107.688 18.8106 103.279 24.101 103.279H231.311C236.602 103.279 241.01 107.688 241.01 112.978V208.207Z"/> <path d="M47.908 119.738H26.7461V140.9H47.908V119.738Z"/> <path d="M78.1815 119.738H57.0195V140.9H78.1815V119.738Z"/> <path d="M108.161 119.738H86.9987V140.9H108.161V119.738Z"/> <path d="M138.434 119.738H117.272V140.9H138.434V119.738Z"/> <path d="M168.707 119.738H147.545V140.9H168.707V119.738Z"/> <path d="M198.687 119.738H177.525V140.9H198.687V119.738Z"/> <path d="M228.96 119.738H207.798V140.9H228.96V119.738Z"/> <path d="M47.908 180.285H26.7461V201.447H47.908V180.285Z"/> <path d="M78.1815 180.285H57.0195V201.447H78.1815V180.285Z"/> <path d="M168.413 180.285H86.9987V201.447H168.413V180.285Z"/> <path d="M198.687 180.285H177.525V201.447H198.687V180.285Z"/> <path d="M228.96 180.285H207.798V201.447H228.96V180.285Z"/> <path d="M62.8976 150.011H26.7461V171.173H62.8976V150.011Z"/> <path d="M93.171 150.011H72.0092V171.173H93.171V150.011Z"/> <path d="M123.444 150.011H102.282V171.173H123.444V150.011Z"/> <path d="M153.717 150.011H132.556V171.173H153.717V150.011Z"/> <path d="M183.697 150.011H162.535V171.173H183.697V150.011Z"/> <path d="M228.96 150.011H192.22V171.173H228.96V150.011Z"/> </svg>