<svg width="256" height="256" viewBox="0 0 256 256" xmlns="http://www.w3.org/2000/svg">
  <style type="text/css">
    path {
      stroke: #6fc81e;
      fill: #6fc81e;              
    }              
  </style>
<path fill-rule="evenodd" clip-rule="evenodd" d="M235.2 22.5H20.5C9.59995 22.5 0.699951 31.4 0.699951 42.3V169.5C0.699951 180.4 9.59995 189.3 20.5 189.3H108.9V208.5H79.7C75.1 208.5 71.4 212.2 71.4 216.8V223.3C71.4 227.9 75.1 231.6 79.7 231.6H176C180.6 231.6 184.3 227.9 184.3 223.3V216.8C184.3 212.2 180.6 208.5 176 208.5H146.8V189.3H235.2C246.1 189.3 255 180.4 255 169.5V42.3C255 31.4 246.1 22.5 235.2 22.5ZM176.3 216.7V223.2C176.3 223.4 176.2 223.5 176 223.5H79.7C79.5 223.5 79.4 223.4 79.4 223.2V216.7C79.4 216.5 79.5 216.4 79.7 216.4H176C176.2 216.4 176.3 216.6 176.3 216.7ZM138.9 208.4H116.9V189.2H138.9V208.4ZM247 169.5C247 176 241.7 181.3 235.2 181.3H20.5C14 181.3 8.69995 176 8.69995 169.5V42.3C8.69995 35.8 14 30.5 20.5 30.5H235.2C241.7 30.5 247 35.8 247 42.3V169.5ZM226.8 40H29C23.2 40 18.5 44.7 18.5 50.5V161.2C18.5 167 23.2 171.7 29 171.7H226.8C232.6 171.7 237.3 167 237.3 161.2V50.5C237.3 44.7 232.6 40 226.8 40ZM229.3 161.2C229.3 162.6 228.2 163.7 226.8 163.7H29C27.6 163.7 26.5 162.6 26.5 161.2V50.5C26.5 49.1 27.6 48 29 48H226.8C228.2 48 229.3 49.1 229.3 50.5V161.2Z"/> </svg>