<svg version="1.1" id="Camada_1" xmlns="http://www.w3.org/2000/svg" xmlns:xlink="http://www.w3.org/1999/xlink" x="0px" y="0px" width="256px" height="256px" viewBox="0 0 256 256" style="enable-background:new 0 0 256 256;" xml:space="preserve"> <path fill="#6fc81e" d="M44.1,64c-2.3,0-4.2,1.9-4.2,4.2v79.3c0,2.3,1.9,4.2,4.2,4.2s4.2-1.9,4.2-4.2V68.2C48.3,65.9,46.4,64,44.1,64z M120.9,213.4 H61.6c-2.3,0-4.2,1.9-4.2,4.2s1.9,4.2,4.2,4.2h59.3c2.3,0,4.2-1.9,4.2-4.2C125.1,215.3,123.2,213.4,120.9,213.4z M32.9,219.7 c-4.6,0-8.3,3.7-8.3,8.3s3.7,8.3,8.3,8.3s8.3-3.7,8.3-8.3S37.5,219.7,32.9,219.7z M32.8,46.4c4.6,0,8.3-3.7,8.3-8.3 s-3.7-8.3-8.3-8.3s-8.3,3.7-8.3,8.3S28.2,46.4,32.8,46.4z M65,151.7c2.3,0,4.2-1.9,4.2-4.2V68.2c0-2.3-1.9-4.2-4.2-4.2 s-4.2,1.9-4.2,4.2v79.3C60.8,149.8,62.7,151.7,65,151.7z M222.8,29.8c-4.6,0-8.3,3.7-8.3,8.3s3.7,8.3,8.3,8.3s8.3-3.7,8.3-8.3 S227.4,29.7,222.8,29.8z M222.8,219.7c-4.6,0-8.3,3.7-8.3,8.3s3.7,8.3,8.3,8.3s8.3-3.7,8.3-8.3S227.4,219.7,222.8,219.7z M233.9,11.5H181V4.2c0-2.3-1.9-4.2-4.2-4.2s-4.2,1.9-4.2,4.2v7.3h-16.7V4.2c0-2.3-1.9-4.2-4.2-4.2s-4.2,1.9-4.2,4.2v7.3h-16.7V4.2 c0-2.3-1.9-4.2-4.2-4.2s-4.2,1.9-4.2,4.2v7.3H86.9V4.2C86.9,1.9,85,0,82.7,0s-4.2,1.9-4.2,4.2v7.3H22.2C13.3,11.5,6,18.7,6,27.7 v211.7c0,8.9,7.3,16.2,16.2,16.2h211.7c8.9,0,16.2-7.3,16.2-16.2V27.7C250.1,18.7,242.8,11.5,233.9,11.5z M155.9,19.8h16.7v9.9 h-16.7V19.8z M130.9,19.8h16.7v9.9h-16.7V19.8z M191.1,38.2c1.8,0,3.3,1.5,3.3,3.3v38.8c0,1.8-1.5,3.3-3.3,3.3h-78.5 c-1.8,0-3.3-1.5-3.3-3.3V41.5c0-1.8,1.5-3.3,3.3-3.3H191.1z M241.7,239.4c0,4.3-3.5,7.8-7.8,7.8H22.2c-4.3,0-7.8-3.5-7.8-7.8V27.7 c0-4.2,3.6-7.8,7.8-7.8h56.4v8c0,2.3,1.9,4.2,4.2,4.2s4.2-1.9,4.2-4.2v-8h35.7v9.9h-15c-3.4,0-6.2,2.8-6.2,6.2v49.4 c0,3.4,2.8,6.2,6.2,6.2h88.6c3.4,0,6.2-2.8,6.2-6.2V35.9c0-3.4-2.8-6.2-6.2-6.2H181v-9.9h52.9c4.3,0,7.8,3.5,7.8,7.8V239.4z M177.5,146.4c-5.3,0-9.6,4.3-9.6,9.6s4.3,9.6,9.6,9.6s9.6-4.3,9.6-9.6S182.7,146.4,177.5,146.4z M120.9,192.5H61.6 c-2.3,0-4.2,1.9-4.2,4.2s1.9,4.2,4.2,4.2h59.3c2.3,0,4.2-1.9,4.2-4.2S123.2,192.5,120.9,192.5z M177.4,111.8 c-24.5,0-44.3,19.8-44.3,44.3s19.8,44.3,44.3,44.3s44.3-19.8,44.3-44.3S201.9,111.8,177.4,111.8z M201,160.5 c1.2,0.2,2.4,0.4,3.5,0.6c1.1,0.2,2.2,0.4,3.3,0.5c1,0.1,2,0.3,2.9,0.4c0.9,0.1,1.7,0.2,2.4,0.3c0.2,0,0.3,0,0.5,0.1 c-1.5,9.2-6.5,17.2-13.5,22.7c-0.1,0-0.2-0.1-0.2-0.1c-1.1-0.6-2.1-1.2-3.2-1.8c-1.1-0.6-2.2-1.3-3.4-2c-1.1-0.7-2.3-1.4-3.4-2.1 s-2.3-1.4-3.4-2.1c-0.8-0.5-1.6-1-2.3-1.5c0.4,1.2,0.8,2.4,1.2,3.5s0.8,2.3,1.3,3.3c0.4,1.1,0.8,2.1,1.2,3.1s0.8,1.9,1.1,2.7 c0.4,0.8,0.7,1.6,1,2.2c0.1,0.2,0.1,0.3,0.2,0.5c-3.9,1.4-8.2,2.2-12.6,2.2c-4.9,0-9.6-1-13.8-2.7c0-0.1,0-0.2,0-0.3 c0-1.2,0-2.4,0-3.7s0-2.6,0-3.9s0.1-2.7,0.1-4c0-1.4,0.1-2.7,0.1-4c0.1-0.9,0.1-1.9,0.2-2.8c-0.8,0.9-1.6,1.9-2.4,2.8 c-0.8,0.9-1.5,1.9-2.3,2.8c-0.7,0.9-1.4,1.7-2.1,2.6c-0.6,0.8-1.2,1.6-1.8,2.3c-0.5,0.7-1,1.4-1.4,2c-0.1,0.1-0.2,0.3-0.3,0.4 c-6.8-5.7-11.5-13.9-12.8-23.1c0.1,0,0.2-0.1,0.2-0.1c1-0.6,2.1-1.2,3.2-1.9c1.1-0.6,2.3-1.3,3.4-2c1.2-0.6,2.4-1.3,3.6-1.9 c1.2-0.6,2.4-1.3,3.6-1.9c0.8-0.4,1.7-0.8,2.5-1.2c-1.2-0.2-2.4-0.5-3.6-0.7c-1.2-0.2-2.4-0.4-3.5-0.6c-1.1-0.2-2.2-0.4-3.3-0.5 c-1-0.1-2-0.3-2.9-0.4c-0.9-0.1-1.7-0.2-2.4-0.3c-0.2,0-0.3,0-0.5,0c1.6-9.2,6.6-17.2,13.6-22.7c0.1,0,0.2,0.1,0.2,0.1 c1.1,0.6,2.1,1.2,3.2,1.8c1.1,0.6,2.2,1.3,3.4,2c1.1,0.7,2.3,1.4,3.4,2.1c1.1,0.7,2.3,1.4,3.4,2.1c0.8,0.5,1.6,1,2.3,1.5 c-0.4-1.2-0.8-2.4-1.2-3.5s-0.8-2.2-1.3-3.3c-0.4-1.1-0.8-2.1-1.2-3.1s-0.8-1.9-1.1-2.7c-0.4-0.8-0.7-1.6-1-2.2 c-0.1-0.2-0.1-0.3-0.2-0.5c3.9-1.4,8.2-2.2,12.6-2.2c4.9,0,9.6,1,13.8,2.7c0,0.1,0,0.2,0,0.3c0,1.2,0,2.4,0,3.7s0,2.6,0,3.9 s-0.1,2.7-0.1,4s-0.1,2.7-0.2,4c-0.1,0.9-0.1,1.9-0.2,2.8c0.8-0.9,1.6-1.9,2.4-2.8s1.5-1.9,2.3-2.8c0.7-0.9,1.4-1.8,2.1-2.6 c0.6-0.8,1.2-1.6,1.8-2.3c0.5-0.7,1-1.4,1.4-2c0.1-0.1,0.2-0.3,0.3-0.4c6.8,5.7,11.5,13.9,12.8,23.1c-0.1,0-0.2,0.1-0.2,0.1 c-1,0.6-2.1,1.2-3.2,1.9c-1.1,0.6-2.3,1.3-3.4,1.9c-1.2,0.6-2.4,1.3-3.6,1.9s-2.4,1.3-3.6,1.9c-0.8,0.4-1.7,0.8-2.5,1.2 C198.6,160,199.8,160.3,201,160.5z"/> </svg>