<svg width="256" height="248" viewBox="0 0 256 248" xmlns="http://www.w3.org/2000/svg">
  <style type="text/css">
    path {
      stroke: #6fc81e;
      fill: #6fc81e;              
    }              
  </style>
<path d="M128 0.408691C78.6223 0.408691 38.356 40.6751 38.356 90.0528V157.947C38.356 207.325 78.6223 247.591 128 247.591C177.378 247.591 217.644 207.619 217.644 157.947V90.0528C217.644 40.6751 177.378 0.408691 128 0.408691ZM202.948 90.0528V116.799H135.348V15.3984C173.263 19.2193 202.948 51.256 202.948 90.0528ZM120.652 15.3984V116.505H53.0517V89.7589C53.0517 51.256 82.7371 19.2193 120.652 15.3984ZM128 232.896C86.558 232.896 53.0517 199.389 53.0517 157.947V131.201H202.948V157.947C202.948 199.389 169.442 232.896 128 232.896Z"/> </svg>