<svg version="1.1" xmlns="http://www.w3.org/2000/svg" xmlns:xlink="http://www.w3.org/1999/xlink" x="0px" y="0px" width="256px" height="256px" viewBox="-351 153 256 256" style="enable-background:new -351 153 256 256;" xml:space="preserve">   <style type="text/css">
    path {
      stroke: #6fc81e;
      fill: #6fc81e;              
    }              
  </style>
<path d="M-168.8,258.7v-75.1c0-10.7-8.7-19.3-19.3-19.3h-131.3c-10.7,0-19.3,8.7-19.3,19.3v187c0,10.7,8.7,19.3,19.3,19.3h108.7 c10.6,6.4,23.1,10.1,36.4,10.1c39,0,70.8-31.8,70.8-70.8C-103.5,292.1-132.3,261.5-168.8,258.7z M-319.4,380c-5.2,0-9.3-4.2-9.3-9.3 v-187c0-5.2,4.2-9.3,9.3-9.3h131.3c5.2,0,9.3,4.2,9.3,9.3v75c-37,2.3-66.4,33.1-66.4,70.7c0,19.9,8.2,37.8,21.5,50.7H-319.4z M-174.3,390.1c-33.5,0-60.8-27.3-60.8-60.8s27.3-60.8,60.8-60.8s60.8,27.3,60.8,60.8S-140.8,390.1-174.3,390.1z M-174.3,306.1 c-12.7,0-23.1,10.4-23.1,23.1s10.4,23.1,23.1,23.1s23.1-10.4,23.1-23.1S-161.6,306.1-174.3,306.1z M-174.3,342.4 c-7.2,0-13.1-5.9-13.1-13.1s5.9-13.1,13.1-13.1c7.2,0,13.1,5.9,13.1,13.1S-167.1,342.4-174.3,342.4z"/> </svg>