<svg version="1.1" xmlns="http://www.w3.org/2000/svg" xmlns:xlink="http://www.w3.org/1999/xlink" x="0px" y="0px" width="256px" height="256px" viewBox="0 0 256 256" style="enable-background:new 0 0 256 256;" xml:space="preserve">
  <style type="text/css">
    path {
      stroke: #6fc81e;
      fill: #6fc81e;              
    }              
  </style>
<path d="M138,184.2H78.1c-5,0-9,4-9,9v21.2c0,5,4,9,9,9H138c5,0,9-4,9-9v-21.2C146.9,188.2,142.9,184.2,138,184.2z M138.9,214.4 c0,0.5-0.4,1-1,1H78.1c-0.5,0-1-0.4-1-1v-21.2c0-0.5,0.4-1,1-1H138c0.5,0,1,0.4,1,1v21.2H138.9z M138,133.5H78.1c-5,0-9,4-9,9v21.2 c0,5,4,9,9,9H138c5,0,9-4,9-9v-21.2C146.9,137.5,142.9,133.5,138,133.5z M138.9,163.7c0,0.5-0.4,1-1,1H78.1c-0.5,0-1-0.4-1-1v-21.2 c0-0.5,0.4-1,1-1H138c0.5,0,1,0.4,1,1v21.2H138.9z M138,82.8H78.1c-5,0-9,4-9,9V113c0,5,4,9,9,9H138c5,0,9-4,9-9V91.8 C146.9,86.9,142.9,82.8,138,82.8z M138.9,113c0,0.5-0.4,1-1,1H78.1c-0.5,0-1-0.4-1-1V91.8c0-0.5,0.4-1,1-1H138c0.5,0,1,0.4,1,1V113 H138.9z M138,32.2H78.1c-5,0-9,4-9,9v21.2c0,5,4,9,9,9H138c5,0,9-4,9-9V41.1C146.9,36.2,142.9,32.2,138,32.2z M138.9,62.3 c0,0.5-0.4,1-1,1H78.1c-0.5,0-1-0.4-1-1V41.1c0-0.5,0.4-1,1-1H138c0.5,0,1,0.4,1,1v21.2H138.9z M205.5,122.2c9.9,0,12-6.3,12-11.6 V30.2c0-12.8-8-15.5-14.6-15.5h-23.2c-3-6.6-9.6-11.2-17.3-11.2H56.5c-10.5,0-19,8.5-19,19V233c0,10.5,8.5,19,19,19h105.9 c7.7,0,14.3-4.6,17.3-11.2h23.2c14.6,0,14.6-11.6,14.6-15.5v-76.5c0-5.8,0-15.5-12-15.5c-3.6,0-8-1.1-8-6.2 C197.5,122.2,205.4,122.2,205.5,122.2z M173.3,233c0,6-4.9,11-11,11H56.5c-6,0-11-4.9-11-11V22.5c0-6,4.9-11,11-11h105.9 c6,0,11,4.9,11,11L173.3,233L173.3,233z M205.5,141.3c3.2,0,4,0,4,7.5v76.5c0,6-1.3,7.5-6.6,7.5h-21.5v-14.9h12.9 c1.9,0,3.5-1.8,3.5-4s-1.6-4-3.5-4h-12.9v-11.1h12.9c1.9,0,3.5-1.8,3.5-4s-1.6-4-3.5-4h-12.9v-11.1h12.9c1.9,0,3.5-1.8,3.5-4 s-1.6-4-3.5-4h-12.9v-11.1h12.9c1.9,0,3.5-1.8,3.5-4s-1.6-4-3.5-4h-12.9v-50.7h12.9c1.9,0,3.5-1.8,3.5-4s-1.6-4-3.5-4h-12.9V82.7 h12.9c1.9,0,3.5-1.8,3.5-4s-1.6-4-3.5-4h-12.9V63.6h12.9c1.9,0,3.5-1.8,3.5-4s-1.6-4-3.5-4h-12.9V44.5h12.9c1.9,0,3.5-1.8,3.5-4 s-1.6-4-3.5-4h-12.9V22.7h21.5c4.5,0,6.6,1.1,6.6,7.5v80.4c0,3-0.3,3.6-4,3.6c-7.7,0-16,4-16,12.9 C189.5,135.7,195.8,141.3,205.5,141.3z"/> </svg>