<svg version="1.1" xmlns="http://www.w3.org/2000/svg" xmlns:xlink="http://www.w3.org/1999/xlink" x="0px" y="0px" width="256px" height="256px" viewBox="0 0 256 256" style="enable-background:new 0 0 256 256;" xml:space="preserve">
  <style type="text/css">
    path {
      stroke: #6fc81e;
      fill: #6fc81e;              
    }              
  </style>
<path d="M85.9,140c0-2.2,1.8-4,4-4h81.5c2.2,0,4,1.8,4,4s-1.8,4-4,4H89.9C87.7,144,85.9,142.2,85.9,140z M222.4,181.3V248h16.4 c2.2,0,4,1.8,4,4s-1.8,4-4,4H22.6c-2.2,0-4-1.8-4-4s1.8-4,4-4H39v-66.7c-11.4-0.4-20.5-9.7-20.5-21.2V20.8C18.5,9.2,28-0.3,39.7-0.3 h182c11.7,0,21.2,9.5,21.2,21.1v139.3C242.9,171.6,233.8,180.9,222.4,181.3z M39.7,173.3h182c7.3,0,13.2-5.9,13.2-13.2V20.8 c0-7.3-5.9-13.2-13.2-13.2h-182c-7.3,0-13.2,5.9-13.2,13.2v139.3C26.5,167.4,32.4,173.3,39.7,173.3z M69.9,181.3 c6,28.6,31.4,49.1,60.8,49.1c29.4,0,54.6-20.5,60.8-49.1h-37.7c-0.1,0.4-0.2,0.8-0.4,1.2c-4.7,8.9-13.3,14.4-22.6,14.4 c-9.5,0-18.2-5.6-22.8-14.8c-0.1-0.3-0.2-0.5-0.3-0.8H69.9z M130.8,188.9c5.4,0,10.6-2.9,14-7.6h-27.9 C120.3,186,125.4,188.9,130.8,188.9z M214.4,248v-66.7h-14.7c-6.2,33-35.2,57.1-69,57.1c-33.8,0-62.7-24.1-69-57.1H47V248H214.4z"/> </svg>