<svg version="1.1" xmlns="http://www.w3.org/2000/svg" xmlns:xlink="http://www.w3.org/1999/xlink" x="0px" y="0px" width="256px" height="256px" viewBox="0 0 256 256" style="enable-background:new 0 0 256 256;" xml:space="preserve">
  <style type="text/css">
    path {
      stroke: #6fc81e;
      fill: #6fc81e;              
    }              
  </style>
<path d="M206,0.3H53.6C36.8,0.3,23.1,14,23.1,30.8v194.7c0,16.8,13.7,30.5,30.5,30.5H206c16.8,0,30.5-13.7,30.5-30.5V30.8 C236.5,14,222.9,0.3,206,0.3z M79.3,8.3h14.1v39.1h-4.6c-5.2,0-9.5-4.3-9.5-9.5V8.3z M101.4,8.3h13.8v39.1h-13.8V8.3z M123.2,8.3 H137v39.1h-13.8V8.3z M145,8.3h13.8v39.1H145V8.3z M166.8,8.3h13.5v29.6c0,5.2-4.3,9.5-9.5,9.5h-4V8.3z M228.5,225.5 c0,12.4-10.1,22.5-22.5,22.5H53.6c-12.4,0-22.5-10.1-22.5-22.5V30.8c0-12.4,10.1-22.5,22.5-22.5h17.7v29.6c0,9.6,7.9,17.5,17.5,17.5 h82c9.6,0,17.5-7.9,17.5-17.5V8.3H206c12.4,0,22.5,10.1,22.5,22.5V225.5z M213.4,223.9c0,4.4-3.6,8-8,8s-8-3.6-8-8s3.6-8,8-8 S213.4,219.5,213.4,223.9z M63.4,223.9c0,4.4-3.6,8-8,8s-8-3.6-8-8s3.6-8,8-8S63.4,219.5,63.4,223.9z M63.4,77.9c0,4.4-3.6,8-8,8 s-8-3.6-8-8s3.6-8,8-8S63.4,73.5,63.4,77.9z M213.4,77.9c0,4.4-3.6,8-8,8s-8-3.6-8-8s3.6-8,8-8S213.4,73.5,213.4,77.9z M170.8,96 h-82c-9.6,0-17.5,7.9-17.5,17.5v74.3c0,9.6,7.9,17.5,17.5,17.5h82c9.6,0,17.5-7.9,17.5-17.5v-74.3C188.3,103.9,180.5,96,170.8,96z M180.3,187.8c0,5.2-4.3,9.5-9.5,9.5h-82c-5.2,0-9.5-4.3-9.5-9.5v-74.3c0-5.2,4.3-9.5,9.5-9.5h82c5.2,0,9.5,4.3,9.5,9.5V187.8z"/> </svg>