<svg version="1.1" xmlns="http://www.w3.org/2000/svg" xmlns:xlink="http://www.w3.org/1999/xlink" x="0px" y="0px" width="256px" height="256px" viewBox="0 0 256 256" style="enable-background:new 0 0 256 256;" xml:space="preserve">
  <style type="text/css">
    path {
      stroke: #6fc81e;
      fill: #6fc81e;              
    }              
  </style>
<path d="M180,140.6c1.1-1.6,1.4-3.1,0.6-4.6c-0.2-0.4-0.5-0.8-0.8-1.1L154,109c-1.1-9.4-5.2-17.8-11.8-24.4 c-16.1-16.1-42.4-16.1-58.6,0c-15.5,15.5-16.2,40.5-1.6,56.9c0,0.1,0.1,0.1,0.2,0.2l66.6,66.6c0.8,0.8,1.8,1.2,2.9,1.2 c1,0,2.1-0.4,2.9-1.2l26.4-26.4c0.8-0.8,1.2-1.8,1.2-2.9s-0.4-2.1-1.2-2.9C166.4,161.9,175.5,146.5,180,140.6z M151.7,199.6 L88.1,136c-11.7-13.2-11.2-33.2,1.3-45.7c13-13,34.1-13,47.1,0c5.6,5.6,9,12.9,9.6,20.9c0.1,0.9,0.5,1.8,1.2,2.5l24.4,24.5 c-5.1,7.6-13,24.4,0.8,40.6L151.7,199.6z M99.1,100.2c-7.3,7.3-7.3,18.7,0,26c3.6,3.5,8.3,5.3,13,5.3c4.7,0,9.4-1.8,13-5.4 c7.1-7.2,7.1-18.9-0.1-26C117.9,93.1,106.2,93.1,99.1,100.2z M119.4,120.5c-4,4-10.5,4-14.6,0c-4.1-4.1-4.1-10.5,0-14.6 c4-4,10.5-4,14.6,0C123.4,109.9,123.4,116.4,119.4,120.5z M240.1,159.6L110.4,30l3.8-3.9c5.3-5.2,5.3-13.8,0-19.1l-6-5 c-1.6-1.6-4.1-1.6-5.7,0s-0.6,4.1,1,5.7l5,5c2.2,2.2,2.2,5.5,0,7.7L7.8,121.1c-1.6,1.6-1.6,4.1,0,5.7c0.8,0.8,1.8,1.2,2.9,1.2 c1,0,2.1-0.4,2.9-1.2l17.2-17.2L55.2,134l-3.9,3.9c-2.6,2.6-4,6-4,9.6c0,3.6,1.4,7,4,9.6L85,190.5c5.3,5.3,13.8,5.3,19.1,0l3.9-3.9 l4.1,4.1l-3.9,3.9c-5.3,5.3-5.3,13.8,0,19.1l5.6,5.6c5.3,5.3,13.8,5.3,19.1,0l3.9-3.9l3.8,3.8l-3.9,3.9c-5.3,5.3-5.3,13.8,0,19.1 l5.6,5.6c5.3,5.3,13.8,5.3,19.1,0l3.9-3.9l8.5,8.5l0.1,0.1c1.7,1.6,4,2.5,6.2,2.5c2.3,0,4.5-0.8,6.2-2.5l53.7-53.7 C250.9,188.1,250.9,170.4,240.1,159.6z M234.3,193.2l-53.7,53.7c-0.2,0.2-0.8,0.3-1.1-0.1l-11.3-11.3c-1.6-1.6-4.1-1.6-5.7,0 l-6.8,6.8c-2.2,2.2-5.5,2.2-7.7,0l-5.6-5.6c-2.2-2.2-2.2-5.5,0-7.7l6.8-6.8c1.6-1.6,1.6-4.1,0-5.7l-9.5-9.5c-1.6-1.6-4.1-1.6-5.7,0 l-6.8,6.8c-2.2,2.2-5.5,2.2-7.7,0l-5.6-5.6c-2.2-2.2-2.2-5.5,0-7.7l6.8-6.8c1.6-1.6,1.6-4.1,0-5.7l-9.8-9.8 c-0.8-0.8-1.8-1.2-2.9-1.2s-2.1,0.4-2.9,1.2l-6.8,6.8c-2.2,2.2-5.5,2.2-7.7,0L57,151.4c-2.2-2.2-2.2-5.5,0-7.7l6.8-6.8 c1.6-1.6,1.6-4.1,0-5.7l-27.3-27.3l68.2-68.2l129.6,129.6C242,173,242,185.5,234.3,193.2z M61.2,49.2c-1.6-1.6-1.6-4.1,0-5.7 l20.2-20.2c1.6-1.6,4.1-1.6,5.7,0c1.6,1.6,1.6,4.1,0,5.7L66.9,49.2C66.1,50,65,50.4,64,50.4S62,50,61.2,49.2z M20.9,89.5 c-1.6-1.6-1.6-4.1,0-5.7l20.2-20.2c1.6-1.6,4.1-1.6,5.7,0c1.6,1.6,1.6,4.1,0,5.7L26.6,89.5c-0.8,0.8-1.9,1.2-2.9,1.2 S21.6,90.3,20.9,89.5z"/> </svg>