<svg version="1.1" xmlns="http://www.w3.org/2000/svg" xmlns:xlink="http://www.w3.org/1999/xlink" x="0px" y="0px" width="256px" height="256px" viewBox="-171 -8 256 256" style="enable-background:new -171 -8 256 256;" xml:space="preserve">   <style type="text/css">
    path {
      stroke: #6fc81e;
      fill: #6fc81e;              
    }              
  </style>
<path d="M40.1,94.3h-6.4v-39c0-10.2-8.3-18.5-18.5-18.5h-34.8V24.4c0-10.2-8.3-18.5-18.5-18.5h-81.5c-10.2,0-18.5,8.3-18.5,18.5 v81.5c0,6.1,3,11.5,7.5,14.8c-4.6,3.4-7.5,8.8-7.5,14.9v81.5c0,10.2,8.3,18.5,18.5,18.5H-38c10.2,0,18.5-8.3,18.5-18.5v-81.5 c0-6.1-3-11.5-7.5-14.8c4.6-3.4,7.5-8.8,7.5-14.9V46.8h34.8c4.7,0,8.5,3.8,8.5,8.5v39h-6.9c-8.3,0-15.1,6.8-15.1,15.1v23.3 c0,8.3,6.8,15.1,15.1,15.1h23.3c8.3,0,15.1-6.8,15.1-15.1v-23.3C55.3,101,48.5,94.3,40.1,94.3z M-128,24.4c0-4.7,3.8-8.5,8.5-8.5 H-38c4.7,0,8.5,3.8,8.5,8.5v81.5c0,4.7-3.8,8.5-8.5,8.5h-81.5c-4.7,0-8.5-3.8-8.5-8.5V24.4z M-29.5,217.1c0,4.7-3.8,8.5-8.5,8.5 h-81.5c-4.7,0-8.5-3.8-8.5-8.5v-81.5c0-4.7,3.8-8.5,8.5-8.5H-38c4.7,0,8.5,3.8,8.5,8.5V217.1z M45.3,132.6c0,2.8-2.3,5.1-5.1,5.1 H16.9c-2.8,0-5.1-2.3-5.1-5.1v-23.3c0-2.8,2.3-5.1,5.1-5.1h23.3c2.8,0,5.1,2.3,5.1,5.1V132.6z M34.7,107.8H22.3 c-3.9,0-7.1,3.2-7.1,7.1v12.4c0,3.9,3.2,7.1,7.1,7.1h12.4c3.9,0,7.1-3.2,7.1-7.1v-12.4C41.8,110.9,38.6,107.8,34.7,107.8z M31.8,124.3h-6.5v-6.5h6.5V124.3z M-41.6,44.1c-0.9-1.5-2.4-2.7-4.1-3.1c0.1-1.8-0.5-3.5-1.7-4.9c0,0-0.1-0.1-0.1-0.1 c-2.9-3.1-6.3-5.8-9.9-7.9c-6.4-3.7-13.6-5.7-20.8-5.8c-1.9-0.1-3.6,0.7-4.9,2c-1.6-1-3.4-1.3-5.2-0.9c-4.1,0.9-8,2.5-11.8,4.7 c-6.4,3.7-11.7,9-15.4,15.2c0,0.1-0.1,0.1-0.1,0.2c-0.9,1.6-1.1,3.4-0.6,5c-1.6,0.8-2.7,2.2-3.3,3.9c0,0,0,0.1,0,0.1 c-1.2,4.1-1.9,8.3-1.9,12.5c0,7.4,1.9,14.7,5.5,21c0.9,1.5,2.4,2.7,4.1,3.1c-0.1,1.8,0.5,3.5,1.7,4.9c0,0,0.1,0.1,0.1,0.1 c2.9,3.1,6.3,5.8,9.9,7.9c6.4,3.7,13.6,5.7,20.8,5.8c0.1,0,0.2,0,0.2,0c1.8,0,3.4-0.7,4.7-2c1.5,1,3.4,1.3,5.2,0.9 c4-0.9,8-2.5,11.8-4.7c6.4-3.7,11.7-9,15.4-15.2c0-0.1,0.1-0.1,0.1-0.2c0.8-1.6,1-3.4,0.6-5c1.6-0.8,2.8-2.2,3.3-3.9 c0,0,0-0.1,0-0.1c1.2-4.1,1.9-8.3,1.9-12.5C-36.1,57.8-38,50.5-41.6,44.1z M-47.1,73.2c-4.4,1.4-9.6,1.3-14.7-0.1 c-2.5-0.7-5.1,0.6-6,2.9c-1,2.4,0,5.1,2.3,6.3c3.8,2,7.7,3.3,11.6,4c-2.4,2.8-5.3,5.3-8.6,7.2c-2.4,1.4-4.9,2.5-7.5,3.2 c-3.4-3.2-6-7.6-7.3-12.8c-0.6-2.5-3-4.1-5.5-3.8c-2.5,0.3-4.4,2.6-4.3,5.1c0.1,4.3,0.9,8.3,2.4,12.1c-3.7-0.7-7.2-2-10.5-3.9 c-2.3-1.3-4.5-3-6.4-4.9c1-4.6,3.6-9,7.4-12.6c1.9-1.8,2.1-4.7,0.5-6.7c-1.6-2-4.4-2.5-6.6-1.2c-3.6,2.3-6.8,5-9.3,8.1 c-1.3-3.5-1.9-7.2-1.9-11c0-2.7,0.3-5.4,1-8c4.4-1.4,9.6-1.3,14.7,0.1c2.5,0.7,5.1-0.6,6-2.9c1-2.4,0-5.1-2.3-6.3 c-3.8-2-7.7-3.3-11.6-4c2.4-2.8,5.3-5.3,8.6-7.2c2.4-1.4,4.9-2.4,7.5-3.2c3.4,3.2,6,7.6,7.3,12.8c0.6,2.5,3,4.1,5.5,3.8 c2.5-0.3,4.4-2.6,4.3-5.1c-0.1-4.3-0.9-8.3-2.4-12.1c3.7,0.7,7.2,2,10.5,3.9c2.3,1.3,4.5,3,6.4,4.9c-1,4.6-3.6,9-7.4,12.6 c-1.9,1.8-2.1,4.7-0.5,6.7c1.6,2,4.4,2.5,6.6,1.2c3.6-2.2,6.8-5,9.3-8.1c1.3,3.5,1.9,7.2,1.9,11C-46.1,67.9-46.4,70.6-47.1,73.2z M-70.4,65.2c0,4.6-3.8,8.4-8.4,8.4s-8.4-3.8-8.4-8.4c0-4.6,3.8-8.4,8.4-8.4S-70.4,60.5-70.4,65.2z M-41.6,155.4 c-0.9-1.5-2.4-2.7-4.1-3.1c0.1-1.8-0.5-3.5-1.7-4.9c0,0-0.1-0.1-0.1-0.1c-2.9-3.1-6.3-5.8-9.9-7.9c-6.4-3.7-13.6-5.7-20.8-5.8 c-1.9-0.1-3.6,0.7-4.9,2c-1.6-1-3.4-1.3-5.2-0.9c-4.1,0.9-8,2.5-11.8,4.7c-6.4,3.7-11.7,9-15.4,15.2c0,0.1-0.1,0.1-0.1,0.2 c-0.9,1.6-1.1,3.4-0.6,5c-1.6,0.8-2.7,2.2-3.3,3.9c0,0,0,0.1,0,0.1c-1.2,4.1-1.9,8.3-1.9,12.5c0,7.4,1.9,14.7,5.5,21 c0.9,1.5,2.4,2.7,4.1,3.1c-0.1,1.8,0.5,3.5,1.7,4.9c0,0,0.1,0.1,0.1,0.1c2.9,3.1,6.3,5.8,9.9,7.9c6.4,3.7,13.6,5.7,20.8,5.8 c0.1,0,0.2,0,0.2,0c1.8,0,3.4-0.7,4.7-2c1.5,1,3.4,1.3,5.2,0.9c4-0.9,8-2.5,11.8-4.7c6.4-3.7,11.7-9,15.4-15.2 c0-0.1,0.1-0.1,0.1-0.2c0.8-1.6,1-3.4,0.6-5c1.6-0.8,2.8-2.2,3.3-3.9c0,0,0-0.1,0-0.1c1.2-4.1,1.9-8.3,1.9-12.5 C-36.1,169-38,161.7-41.6,155.4z M-47.1,184.4c-4.4,1.4-9.6,1.3-14.7-0.1c-2.5-0.7-5.1,0.6-6,2.9c-1,2.4,0,5.1,2.3,6.3 c3.8,2,7.7,3.3,11.6,4c-2.4,2.8-5.3,5.3-8.6,7.2c-2.4,1.4-4.9,2.5-7.5,3.2c-3.4-3.2-6-7.6-7.3-12.8c-0.6-2.5-3-4.1-5.5-3.8 c-2.5,0.3-4.4,2.6-4.3,5.1c0.1,4.3,0.9,8.3,2.4,12.1c-3.7-0.7-7.2-2-10.5-3.9c-2.3-1.3-4.5-3-6.4-4.9c1-4.6,3.6-9,7.4-12.6 c1.9-1.8,2.1-4.7,0.5-6.7c-1.6-2-4.4-2.5-6.6-1.2c-3.6,2.3-6.8,5-9.3,8.1c-1.3-3.5-1.9-7.2-1.9-11c0-2.7,0.3-5.4,1-8 c4.4-1.4,9.6-1.3,14.7,0.1c2.5,0.7,5.1-0.6,6-2.9c1-2.4,0-5.1-2.3-6.3c-3.8-2-7.7-3.3-11.6-4c2.4-2.8,5.3-5.3,8.6-7.2 c2.4-1.4,4.9-2.4,7.5-3.2c3.4,3.2,6,7.6,7.3,12.8c0.6,2.5,3,4.1,5.5,3.8c2.5-0.3,4.4-2.6,4.3-5.1c-0.1-4.3-0.9-8.3-2.4-12.1 c3.7,0.7,7.2,2,10.5,3.9c2.3,1.3,4.5,3,6.4,4.9c-1,4.6-3.6,9-7.4,12.6c-1.9,1.8-2.1,4.7-0.5,6.7c1.6,2,4.4,2.5,6.6,1.2 c3.6-2.2,6.8-5,9.3-8.1c1.3,3.5,1.9,7.2,1.9,11C-46.1,179.1-46.4,181.8-47.1,184.4z M-70.4,176.4c0,4.6-3.8,8.4-8.4,8.4 s-8.4-3.8-8.4-8.4c0-4.6,3.8-8.4,8.4-8.4S-70.4,171.8-70.4,176.4z"/> </svg>